<svg width="480" height="160" viewBox="0 0 480 160" fill="none" xmlns="http://www.w3.org/2000/svg" role="img" aria-labelledby="title desc">
  <title id="title">おとあつめ</title>
  <desc id="desc">音符とモニターを組み合わせた、おとあつめの仮ロゴです。</desc>
  <rect width="480" height="160" fill="transparent"/>
  <g fill="#4aadcc">
    <path d="M21 43C21 34.7157 27.7157 28 36 28H150C158.284 28 165 34.7157 165 43V111C165 119.284 158.284 126 150 126H101L105 141H124C127.866 141 131 144.134 131 148C131 151.866 127.866 155 124 155H62C58.134 155 55 151.866 55 148C55 144.134 58.134 141 62 141H81L85 126H36C27.7157 126 21 119.284 21 111V43ZM36 42C35.4477 42 35 42.4477 35 43V107H151V43C151 42.4477 150.552 42 150 42H36ZM90 126L86 141H100L96 126H90Z"/>
    <path d="M74 45V80.376C69.451 78.142 63.43 78.499 58.653 81.257C52.234 84.963 49.135 91.78 51.731 96.483C54.328 101.186 61.637 101.994 68.056 98.288C73.445 95.176 76.521 89.999 75.914 85.658C75.971 85.387 76 85.106 76 84.818V57.606L93 52.977V71.376C88.451 69.142 82.43 69.499 77.653 72.257C71.234 75.963 68.135 82.78 70.731 87.483C73.328 92.186 80.637 92.994 87.056 89.288C92.445 86.176 95.521 80.999 94.914 76.658C94.971 76.387 95 76.106 95 75.818V42.5C95 39.856 92.481 37.938 89.935 38.631L78.935 41.631C76.031 42.423 74 45.056 74 48.066V45Z"/>
    <path d="M117 51V78.376C112.451 76.142 106.43 76.499 101.653 79.257C95.234 82.963 92.135 89.78 94.731 94.483C97.328 99.186 104.637 99.994 111.056 96.288C116.445 93.176 119.521 87.999 118.914 83.658C118.971 83.387 119 83.106 119 82.818V58.5H136V73.376C131.451 71.142 125.43 71.499 120.653 74.257C114.234 77.963 111.135 84.78 113.731 89.483C116.328 94.186 123.637 94.994 130.056 91.288C135.445 88.176 138.521 82.999 137.914 78.658C137.971 78.387 138 78.106 138 77.818V50C138 47.791 136.209 46 134 46H121C118.791 46 117 47.791 117 50V51Z"/>
  </g>
  <text x="200" y="96" fill="#4aadcc" font-size="54" font-weight="700" font-family="system-ui, -apple-system, BlinkMacSystemFont, 'Segoe UI', sans-serif" letter-spacing="0.08em">おとあつめ</text>
</svg>
